<svg xmlns="http://www.w3.org/2000/svg" width="1024" height="1024" viewBox="0 0 1024 1024"><defs><filter id="noise" x="-20%" y="-20%" width="140%" height="140%"><feTurbulence type="fractalNoise" stitchTiles="stitch" baseFrequency="0.8" numOctaves="1" seed="3" result="turb"/><feColorMatrix type="saturate" values="0.15"/><feComponentTransfer><feFuncA type="table" tableValues="0 0.06"/></feComponentTransfer></filter><radialGradient id="vignette" cx="50%" cy="50%" r="60%"><stop offset="0%" stop-color="#1a311a" stop-opacity="0"/><stop offset="70%" stop-color="#0e1c0e" stop-opacity="0.35"/><stop offset="100%" stop-color="#091309" stop-opacity="0.5"/></radialGradient><linearGradient id="tone" x1="0" y1="0" x2="0" y2="1"><stop offset="0%" stop-color="#0e1c0e"/><stop offset="50%" stop-color="#144514"/><stop offset="100%" stop-color="#0e1c0e"/></linearGradient><filter id="blur8"><feGaussianBlur stdDeviation="8"/></filter><filter id="blur20"><feGaussianBlur stdDeviation="20"/></filter></defs><rect x="0" y="0" width="1024" height="1024" fill="#102110"/><rect x="0" y="0" width="1024" height="1024" fill="url(#tone)"/><g filter="url(#noise)"><rect x="0" y="0" width="1024" height="1024" fill="#ffffff" opacity="0.25"/></g><g opacity="0.22"><circle cx="300" cy="340" r="120" fill="#b7ff77" filter="url(#blur20)"/><circle cx="700" cy="420" r="90" fill="#a7ff67" filter="url(#blur20)"/><circle cx="520" cy="260" r="70" fill="#c4ff88" filter="url(#blur8)"/><circle cx="840" cy="300" r="60" fill="#a3f56a" filter="url(#blur8)"/><circle cx="220" cy="540" r="80" fill="#c2ff85" filter="url(#blur8)"/></g><path d="M 80 520 C 260 460 420 470 560 520 C 700 570 820 600 940 580" stroke="#9bd36a" stroke-opacity="0.25" stroke-width="22" fill="none" filter="url(#blur20)"/><path d="M 80 520 C 260 460 420 470 560 520 C 700 570 820 600 940 580" stroke="#b7ff77" stroke-opacity="0.15" stroke-width="6" fill="none" filter="url(#blur8)"/><rect x="0" y="0" width="1024" height="1024" fill="url(#vignette)"/></svg>

